<svg version="1.1" xmlns="http://www.w3.org/2000/svg" xmlns:xlink="http://www.w3.org/1999/xlink" width="14" height="14" viewBox="0,0,256,256"><g fill="#358bb9" fill-rule="nonzero" stroke="none" stroke-width="1" stroke-linecap="butt" stroke-linejoin="miter" stroke-miterlimit="10" stroke-dasharray="" stroke-dashoffset="0" font-family="none" font-weight="none" font-size="none" text-anchor="none" style="mix-blend-mode: normal"><g transform="translate(0.089,0.05763) scale(18.28571,18.28571)"><path d="M5.34704,0.88532c0.20534,-0.1929 0.46561,-0.31722 0.74476,-0.35574c0.27916,-0.03852 0.56337,0.01066 0.81328,0.14073c0.25388,0.1357 0.46122,0.34386 0.59474,0.5993l0.8277,1.69373c0.21091,0.42405 0.51759,0.79327 0.89582,1.0785c0.37823,0.28523 0.81766,0.47866 1.28356,0.56501l1.8812,0.32887c0.2795,0.05886 0.5335,0.20392 0.7262,0.41472c0.1927,0.2108 0.3143,0.47672 0.3478,0.7603c0.0334,0.28357 -0.023,0.5705 -0.1614,0.82035c-0.1383,0.24985 -0.3516,0.45004 -0.6098,0.57234l-1.6973,0.82915c-0.4246,0.21072 -0.7944,0.51724 -1.08009,0.89533c-0.28571,0.37809 -0.47951,0.81739 -0.56611,1.28319l-0.33253,1.8766c-0.057,0.2776 -0.19915,0.5305 -0.40667,0.7236c-0.20753,0.1931 -0.47011,0.3168 -0.75123,0.3539c-0.28111,0.037 -0.56676,-0.0144 -0.81723,-0.1472c-0.25046,-0.1328 -0.45328,-0.3403 -0.58024,-0.5936l-0.84554,-1.7268c-0.20925,-0.4121 -0.50931,-0.7713 -0.87761,-1.05066c-0.36829,-0.27935 -0.79522,-0.47155 -1.24863,-0.56212l-1.87932,-0.32516c-0.27767,-0.05713 -0.53064,-0.19925 -0.72379,-0.40662c-0.19315,-0.20737 -0.31688,-0.46971 -0.35404,-0.75059c-0.03715,-0.28088 0.01412,-0.56637 0.1467,-0.81683c0.13258,-0.25046 0.33989,-0.45347 0.59317,-0.58083l1.69656,-0.82509c0.42682,-0.21139 0.79805,-0.51993 1.08384,-0.9008c0.28579,-0.38087 0.47816,-0.82345 0.56163,-1.29212l0.33198,-1.88044c0.05608,-0.27682 0.19744,-0.52872 0.40259,-0.72102z"></path></g></g></svg>